<svg xmlns="http://www.w3.org/2000/svg" id="Layer_1" viewBox="0 0 170 55" width="170" height="55"><style id="style3">.st0{fill:#DF4661;}</style><g id="g5"><g id="g7"><g id="g9"><path class="st0" d="M48.345 6.4H42.19c-.466 0-.84.373-.84.84v41.03c0 .466.374.84.84.84h6.155c.466 0 .84-.374.84-.84V7.24c0-.467-.374-.84-.84-.84z" id="path11" style="fill:#df4661"/><path class="st0" d="M67.274 17.777c-4.382 0-7.833 1.492-10.35 4.382-2.518 2.89-3.73 6.807-3.73 11.75 0 4.848 1.398 8.67 4.103 11.47 2.704 2.796 6.434 4.195 11.19 4.195 2.05 0 3.823-.187 5.408-.466 1.585-.28 3.17-.84 4.756-1.587.28-.093.467-.373.467-.746v-5.035c0-.28-.093-.56-.373-.653-.186-.187-.56-.187-.746-.094-1.678.746-3.17 1.305-4.662 1.585-1.4.28-2.984.467-4.663.467-2.424 0-4.196-.652-5.502-2.05-1.118-1.213-1.864-2.985-2.05-5.13h18.557c.466 0 .84-.373.84-.84v-3.356c0-4.29-1.213-7.74-3.545-10.163-2.424-2.518-5.688-3.73-9.698-3.73zm-5.968 12.03c.28-1.773.84-3.172 1.772-4.104 1.026-1.12 2.425-1.585 4.196-1.585 1.772 0 3.078.56 4.01 1.585.84.932 1.4 2.33 1.492 4.103h-11.47z" id="path13" style="fill:#df4661"/><path class="st0" d="M100.845 17.777c-2.052 0-4.01.373-5.69 1.212-1.304.558-2.423 1.398-3.262 2.423l-.56-2.424c-.093-.374-.373-.654-.746-.654h-4.85c-.465 0-.838.373-.838.84v29.093c0 .466.372.84.838.84h6.155c.466 0 .84-.374.84-.84V33.72c0-3.45.558-5.874 1.677-7.273 1.026-1.4 2.705-2.053 5.13-2.053 1.77 0 2.983.467 3.73 1.4.745.932 1.21 2.517 1.21 4.568V48.27c0 .466.374.84.84.84h6.248c.467 0 .84-.374.84-.84V29.245c-.28-7.553-4.197-11.47-11.563-11.47z" id="path15" style="fill:#df4661"/><path class="st0" d="M135.72 32.976c-1.12-.84-2.89-1.678-5.408-2.61-3.45-1.306-4.85-2.145-5.41-2.518-.652-.467-.93-1.026-.93-1.68 0-.465 0-1.957 4.102-1.957 2.05 0 4.57.654 7.646 1.866.373.186.84 0 1.026-.466l1.958-4.663c.187-.373 0-.84-.373-1.026-3.17-1.397-6.526-2.143-10.07-2.143-3.637 0-6.527.746-8.672 2.238-2.238 1.492-3.357 3.73-3.357 6.434 0 2.237.654 4.195 1.96 5.594 1.305 1.4 3.636 2.797 7.086 4.103 1.68.653 2.984 1.212 3.917 1.772.84.465 1.492.93 1.865 1.304.28.373.466.746.466 1.306 0 .652 0 2.61-4.942 2.61-2.798 0-5.968-.745-9.232-2.33-.28-.094-.56-.094-.746.093-.187.186-.373.373-.373.652v5.316c0 .28.187.56.467.747 2.425 1.212 5.688 1.865 9.698 1.865 4.01 0 7.18-.84 9.42-2.425 2.237-1.678 3.45-4.103 3.45-7.18 0-1.492-.28-2.89-.84-4.01-.56-1.026-1.492-2.05-2.705-2.89z" id="path17" style="fill:#df4661"/><path class="st0" d="M165 20.388c-2.05-1.772-5.035-2.61-8.95-2.61-1.68 0-3.545.185-5.503.65-1.958.468-3.73 1.12-5.408 1.96-.374.186-.56.652-.374 1.025l1.958 4.476c.093.186.28.372.466.466.187.093.466.093.653 0 1.212-.56 2.518-1.12 3.823-1.492 1.306-.373 2.61-.653 4.01-.653 1.585 0 2.797.374 3.45 1.12.746.746 1.12 1.958 1.12 3.637v.652l-4.29.093c-4.663.186-8.3 1.025-10.63 2.61-2.425 1.68-3.73 4.197-3.73 7.46 0 3.078.932 5.41 2.703 7.18 1.77 1.68 4.196 2.52 7.273 2.52 2.33 0 4.29-.374 5.78-1.027 1.214-.56 2.52-1.492 3.73-2.89l.84 2.797c.094.373.374.56.747.56h4.476c.466 0 .84-.374.84-.84v-19.49c.185-3.73-.934-6.434-2.985-8.205zM160.34 35.12v1.68c0 2.05-.56 3.543-1.77 4.662-1.214 1.12-2.8 1.68-4.85 1.68-1.306 0-2.332-.28-2.89-.84-.654-.56-.934-1.4-.934-2.425 0-1.492.56-2.61 1.586-3.357 1.212-.746 3.17-1.212 5.968-1.306l2.89-.093z" id="path19" style="fill:#df4661"/></g><path class="st0" d="M36.222 6.493h-6.434C10.95 10.13 5.17 25.703 2.278 36.8.695 43.047 5.73 48.922 12.63 48.922c.186 0 .373-.186.373-.373.186-29.934 11.936-35.902 16.225-37.02v17.623h-1.305c-2.052 0-3.824.187-5.41.466-1.584.28-3.17.84-4.755 1.585-.28.093-.466.373-.466.746v5.036c0 .28.093.56.373.653.187.185.56.185.746.092 1.68-.746 3.172-1.305 4.664-1.585 1.398-.28 2.984-.466 4.662-.466.56 0 1.12 0 1.585.094v12.59c0 .465.374.838.84.838h6.155c.466 0 .84-.373.84-.84V7.333c-.187-.466-.56-.84-.933-.84z" id="path21" style="fill:#df4661"/></g></g></svg>