<svg width="93" height="25" viewBox="0 0 93 25" xmlns="http://www.w3.org/2000/svg" xmlns:xlink="http://www.w3.org/1999/xlink"><title>A.C.S.</title><use xlink:href="#path0_fill" transform="translate(1 -3)" fill="#FFF"/><defs><path id="path0_fill" d="M-.1 27L7.78 3.73h6.37L22 27h-6.02l-1.45-4.75H7.22L5.77 27H-.1zm13.35-8.97l-2.38-7.67-2.37 7.67h4.75zM29.67 27h-5.53v-6.14h5.53V27zm14.67.45c-3.49 0-6.26-1.05-8.3-3.15-2.06-2.12-3.09-5.09-3.09-8.9 0-3.7 1.03-6.63 3.08-8.82 2.06-2.2 4.84-3.3 8.33-3.3a18.05 18.05 0 0 1 4.62.6c.54.15 1.11.36 1.74.64.62.27 1.13.5 1.51.7v5.55h-.59c-.28-.25-.63-.55-1.06-.9-.43-.35-.91-.7-1.45-1.03a9.2 9.2 0 0 0-1.8-.84 6.47 6.47 0 0 0-4.36.05c-.7.26-1.37.72-2 1.37-.58.6-1.06 1.4-1.44 2.4-.36 1.02-.55 2.21-.55 3.59 0 1.44.2 2.66.58 3.65.39.98.9 1.77 1.52 2.38.6.58 1.27 1 2.01 1.26a6.78 6.78 0 0 0 6.2-.84c.53-.32.99-.65 1.38-.98l1.03-.9h.53v5.47l-1.48.7a18.7 18.7 0 0 1-3.78 1.14c-.64.1-1.51.16-2.63.16zm16.7-.45h-5.52v-6.14h5.53V27zm11.84.42c-1.79 0-3.35-.17-4.7-.51a24 24 0 0 1-3.76-1.29V20.1h.53c1.17 1 2.46 1.75 3.86 2.29 1.4.53 2.77.8 4.1.8.33 0 .77-.04 1.3-.12.56-.07 1-.18 1.34-.34.4-.18.75-.42 1.03-.74s.42-.74.42-1.26c0-.58-.23-1.06-.69-1.42-.46-.37-1-.63-1.64-.8-.79-.2-1.64-.4-2.55-.6a20.5 20.5 0 0 1-2.51-.68c-1.8-.64-3.1-1.5-3.88-2.56a6.67 6.67 0 0 1-1.17-4.04c0-2.17.92-3.93 2.77-5.28 1.84-1.35 4.14-2.03 6.9-2.03a20.38 20.38 0 0 1 7.82 1.56v5.32h-.52a11.55 11.55 0 0 0-3.17-1.88 9.96 9.96 0 0 0-5.2-.65c-.41.07-.84.21-1.28.42-.37.16-.69.41-.96.75-.26.32-.39.69-.39 1.1 0 .59.21 1.06.63 1.41a6.6 6.6 0 0 0 2.45.94l2.25.52c.73.16 1.5.4 2.33.68a7.83 7.83 0 0 1 3.6 2.36 6 6 0 0 1 1.18 3.9 6.7 6.7 0 0 1-2.74 5.57c-1.8 1.4-4.26 2.11-7.36 2.11zM91.33 27H85.8v-6.14h5.53V27z"/></defs></svg>