<?xml version="1.0" standalone="no"?>
<!DOCTYPE svg PUBLIC "-//W3C//DTD SVG 20010904//EN"
 "http://www.w3.org/TR/2001/REC-SVG-20010904/DTD/svg10.dtd">
<svg version="1.0" xmlns="http://www.w3.org/2000/svg"
 width="260.000000pt" height="260.000000pt" viewBox="0 0 260.000000 260.000000"
 preserveAspectRatio="xMidYMid meet">
<metadata>
Created by potrace 1.11, written by Peter Selinger 2001-2013
</metadata>
<g transform="translate(0.000000,260.000000) scale(0.100000,-0.100000)"
fill="#000000" stroke="none">
<path d="M0 1300 l0 -1300 1300 0 1300 0 0 1300 0 1300 -1300 0 -1300 0 0
-1300z m895 345 c168 -32 264 -105 321 -244 l24 -56 0 158 0 158 328 -3 c309
-4 331 -5 397 -27 92 -31 143 -61 197 -119 84 -90 118 -197 118 -372 0 -183
-31 -279 -117 -371 -55 -59 -106 -90 -198 -119 -61 -20 -99 -24 -285 -29
l-215 -6 -3 -212 -2 -213 -223 0 -222 1 -159 244 -158 245 -149 0 -149 0 0
-245 0 -245 -110 0 -110 0 0 735 0 735 319 0 c239 0 338 -4 396 -15z"/>
<path d="M400 1170 l0 -260 168 0 c92 0 196 5 231 10 158 26 218 108 210 287
-9 186 -79 223 -427 223 l-182 0 0 -260z"/>
<path d="M1460 1140 l0 -292 198 4 c187 3 200 5 253 29 94 44 131 119 133 269
1 81 -2 102 -23 143 -51 104 -120 129 -373 135 l-188 4 0 -292z"/>
<path d="M1232 1009 c-1 -9 -18 -48 -37 -86 -41 -81 -100 -141 -179 -180 l-54
-26 137 -205 136 -205 3 176 c2 176 -1 556 -6 526z"/>
</g>
</svg>
