<svg xmlns="http://www.w3.org/2000/svg" viewBox="0 0 438 75" height="75" width="438"><g transform="translate(0 -10)"><circle r="37.5" cy="47.5" cx="37.5" fill="#f2b632"/><circle cx="42.5" cy="42.5" r="42.5" fill="#f2b632" transform="matrix(.88235 0 0 .88235 75 10)"/><path d="M121.62 34.12c2.318 0 4.197 1.88 4.197 4.2 0 .945-.312 1.816-.84 2.518l-1.68 1.68-5.876-5.878 1.68-1.68c.702-.526 1.574-.84 2.52-.84zm-20.99 19.313l-1.68 7.556 7.556-1.68 15.533-15.533-5.88-5.877-15.53 15.533zm17.095-9.772L105.97 55.417l-1.447-1.448 11.754-11.754 1.448 1.447z" fill="#677077"/><g><circle cx="42.5" cy="42.5" r="42.5" fill="#f2b632" transform="matrix(.88235 0 0 .88235 150 10)"/><path d="M172.387 33.72c-.812 0-1.466.655-1.466 1.467v21.555c0 .812.655 1.465 1.467 1.465h8.28c.14.11.254.262.314.45.143.442-.054.87-.44.962l-2.053.624-.16.64c0 .46.308.54.69.54h5.853l.436-.053.02-.45v-7.024h-11.764c-.185 0-.334-.15-.334-.334V36.47c0-.186.15-.335.334-.335h22.095c.185 0 .334.15.334.334v2.62h2.177v-3.903c0-.812-.654-1.467-1.466-1.467z" fill="#677077"/><path d="M186.884 39.87c-.392 0-.708.317-.708.71v20.18c0 .393.316.71.708.71h8.014v-2.82h-6.094c-.117 0-.21-.095-.21-.212V42.67c0-.117.093-.212.21-.212h9.944c.117 0 .21.095.21.212v3.317h2.223V40.58c0-.393-.315-.71-.708-.71h-13.588z" fill="#677077"/><path d="M196.682 46.963c-.407 0-.734.328-.734.735v13.046c0 .407.327.735.734.735h6.91c.41 0 .737-.33.737-.736V47.698c0-.407-.33-.735-.737-.735h-6.91zm1.22 2.095h4.697c.128 0 .232.104.232.234v8.96c0 .13-.104.235-.233.235H197.9c-.13 0-.233-.104-.233-.234v-8.96c0-.13.103-.235.232-.235zm2.46 10.326a.524.524 0 0 1 .524.525.524.524 0 0 1-.524.522.524.524 0 0 1-.523-.523.524.524 0 0 1 .522-.526z" fill="#677077"/><circle cx="42.5" cy="42.5" r="42.5" fill="#f2b632" transform="matrix(.88235 0 0 .88235 225 10)"/><path d="M248.904 47.387c0 5.19 3.097 9.678 7.59 11.803l-6.423-17.14c-.747 1.632-1.166 3.436-1.166 5.337zm22.555-.662c0-1.62-.598-2.742-1.112-3.618-.682-1.08-1.322-1.995-1.322-3.077 0-1.205.938-2.327 2.262-2.327.06 0 .117.007.175.01-2.394-2.137-5.588-3.44-9.093-3.44-4.705 0-8.843 2.35-11.25 5.91.315.01.614.016.865.016 1.407 0 3.59-.167 3.59-.167.724-.04.81.996.084 1.08 0 0-.73.084-1.543.125l4.904 14.206 2.948-8.607-2.1-5.6c-.724-.042-1.41-.123-1.41-.123-.725-.042-.64-1.122.085-1.08 0 0 2.224.165 3.546.165 1.406 0 3.588-.167 3.588-.167.724-.04.812.996.085 1.08 0 0-.732.084-1.542.125l4.867 14.1 1.344-4.37c.582-1.817 1.027-3.118 1.027-4.24zm-8.855 1.81l-4.04 11.434c1.208.344 2.483.533 3.805.533 1.568 0 3.072-.263 4.47-.743-.036-.056-.07-.117-.096-.182l-4.14-11.044zm11.58-7.44c.06.417.09.866.09 1.348 0 1.33-.255 2.826-1.023 4.697l-4.114 11.58c4.004-2.273 6.695-6.496 6.695-11.335 0-2.28-.6-4.423-1.65-6.29zM262.37 29.432c-9.916 0-17.955 8.04-17.955 17.954 0 9.916 8.04 17.955 17.955 17.955s17.954-8.04 17.954-17.955-8.04-17.954-17.954-17.954zm0 33.664c-8.677 0-15.71-7.033-15.71-15.71 0-8.676 7.033-15.71 15.71-15.71 8.676 0 15.71 7.034 15.71 15.71 0 8.677-7.034 15.71-15.71 15.71zM341.688 10h-37.376c-2.37 0-4.312 1.94-4.312 4.312v37.376c0 2.37 1.94 4.312 4.313 4.312h37.375c2.37 0 4.312-1.94 4.312-4.312V14.312c0-2.37-1.94-4.312-4.312-4.312zM317.25 47.375h-5.75V27.25h5.75v20.125zm-2.875-23c-1.59 0-2.875-1.285-2.875-2.875s1.285-2.875 2.875-2.875 2.875 1.285 2.875 2.875-1.285 2.875-2.875 2.875zm23 23h-5.75v-11.5c0-1.59-1.285-2.875-2.875-2.875s-2.875 1.285-2.875 2.875v11.5h-5.75V27.25h5.75v3.568c1.184-1.627 3-3.568 5.03-3.568 3.578 0 6.47 3.217 6.47 7.187v12.938zM369 10.59c-12.702 0-23 10.298-23 23 0 10.16 6.59 18.78 15.728 21.822 1.15.212 1.573-.5 1.573-1.107 0-.55-.022-2.36-.03-4.28-6.4 1.39-7.75-2.715-7.75-2.715-1.045-2.66-2.55-3.366-2.55-3.366-2.09-1.43.157-1.397.157-1.397 2.308.16 3.524 2.37 3.524 2.37 2.054 3.515 5.383 2.497 6.694 1.91.207-1.486.802-2.5 1.46-3.076-5.108-.58-10.48-2.552-10.48-11.366 0-2.51.9-4.562 2.37-6.172-.238-.58-1.026-2.918.222-6.086 0 0 1.932-.618 6.327 2.357 1.834-.508 3.8-.764 5.756-.773 1.953.01 3.923.265 5.76.773 4.39-2.975 6.32-2.357 6.32-2.357 1.25 3.168.464 5.508.226 6.086 1.474 1.61 2.366 3.663 2.366 6.172 0 8.835-5.382 10.778-10.502 11.347.825.714 1.56 2.114 1.56 4.26 0 3.075-.025 5.553-.025 6.31 0 .61.414 1.327 1.58 1.103C385.42 52.36 392 43.74 392 33.583c0-12.7-10.298-22.998-23-22.998zM433.687 10h-37.375c-2.37 0-4.312 1.94-4.312 4.313v37.375c0 2.37 1.94 4.312 4.312 4.312h37.375c2.372 0 4.313-1.94 4.313-4.312V14.313c0-2.372-1.94-4.313-4.313-4.313zm-10.062 7.188c0-.79.647-1.438 1.437-1.438h5.75c.79 0 1.438.647 1.438 1.438v5.75c0 .79-.647 1.437-1.438 1.437h-5.75c-.79 0-1.437-.647-1.437-1.437v-5.75zM415 24.375c4.76 0 8.625 3.864 8.625 8.625 0 4.76-3.864 8.625-8.625 8.625-4.76 0-8.625-3.864-8.625-8.625 0-4.76 3.864-8.625 8.625-8.625zm17.25 24.438c0 .79-.647 1.437-1.438 1.437h-31.625c-.79 0-1.437-.647-1.437-1.437V30.125h3.162c-.19.926-.287 1.886-.287 2.875 0 7.94 6.43 14.375 14.375 14.375 7.944 0 14.375-6.434 14.375-14.375 0-.99-.098-1.95-.288-2.875h3.163v18.688z" fill="#677077"/></g></g><path d="M43.686 44.993l3.176 3.176 10.584-10.586L46.862 27l-3.176 3.174 7.41 7.41zM30.984 30.174L27.81 27 17.223 37.583 27.81 48.17l3.174-3.177-7.41-7.41zM39.363 25.627l2.297.627-6.35 23.286-2.298-.626 6.35-23.287z" fill="#677077"/></svg>