<svg version="1.0" xmlns="http://www.w3.org/2000/svg" width="346.667" height="346.667" viewBox="0 0 260 260"><path d="M0 130v130h260V0H0v130zm89.5-34.5c16.8 3.2 26.4 10.5 32.1 24.4l2.4 5.6V93.9l32.8.3c30.9.4 33.1.5 39.7 2.7 9.2 3.1 14.3 6.1 19.7 11.9 8.4 9 11.8 19.7 11.8 37.2 0 18.3-3.1 27.9-11.7 37.1-5.5 5.9-10.6 9-19.8 11.9-6.1 2-9.9 2.4-28.5 2.9l-21.5.6-.3 21.2-.2 21.3h-22.3l-22.2-.1-15.9-24.4L69.8 192H40v49H18V94h31.9c23.9 0 33.8.4 39.6 1.5z"/><path d="M40 143v26h16.8c9.2 0 19.6-.5 23.1-1 15.8-2.6 21.8-10.8 21-28.7C100 120.7 93 117 58.2 117H40v26zM146 146v29.2l19.8-.4c18.7-.3 20-.5 25.3-2.9 9.4-4.4 13.1-11.9 13.3-26.9.1-8.1-.2-10.2-2.3-14.3-5.1-10.4-12-12.9-37.3-13.5l-18.8-.4V146zM123.2 159.1c-.1.9-1.8 4.8-3.7 8.6-4.1 8.1-10 14.1-17.9 18l-5.4 2.6 13.7 20.5 13.6 20.5.3-17.6c.2-17.6-.1-55.6-.6-52.6z"/></svg>