<svg xmlns="http://www.w3.org/2000/svg" id="Layer_1" viewBox="0 0 170 55" width="170" height="55"><style id="style3">.st0{fill:#df4661}</style><g id="g5"><g id="g7"><g id="g9"><path class="st0" d="M48.34 6.4H42.2a.84.84 0 0 0-.84.84v41.03c0 .47.37.84.84.84h6.16c.46 0 .83-.37.83-.84V7.24a.84.84 0 0 0-.83-.84z" id="path11" fill="#df4661"/><path class="st0" d="M67.27 17.78c-4.38 0-7.83 1.49-10.35 4.38-2.51 2.89-3.73 6.8-3.73 11.75 0 4.85 1.4 8.67 4.1 11.47 2.71 2.8 6.44 4.2 11.2 4.2 2.05 0 3.82-.2 5.4-.47a19 19 0 0 0 4.76-1.59c.28-.1.47-.37.47-.75v-5.03c0-.28-.1-.56-.37-.65-.2-.19-.56-.19-.75-.1a21.21 21.21 0 0 1-9.33 2.05c-2.42 0-4.2-.65-5.5-2.05a8.59 8.59 0 0 1-2.05-5.13h18.56c.46 0 .84-.37.84-.84v-3.35c0-4.3-1.21-7.74-3.55-10.16-2.42-2.52-5.68-3.73-9.7-3.73zM61.31 29.8c.28-1.78.84-3.17 1.77-4.1 1.02-1.13 2.42-1.6 4.2-1.6 1.77 0 3.07.57 4 1.6.84.93 1.4 2.32 1.5 4.1H61.3z" id="path13" fill="#df4661"/><path class="st0" d="M100.84 17.78c-2.05 0-4 .37-5.69 1.2a8.56 8.56 0 0 0-3.26 2.43L91.33 19c-.09-.38-.37-.66-.74-.66h-4.85a.84.84 0 0 0-.84.84v29.1c0 .46.37.84.84.84h6.15c.47 0 .84-.38.84-.84V33.72c0-3.45.56-5.87 1.68-7.27 1.03-1.4 2.7-2.06 5.13-2.06 1.77 0 2.98.47 3.73 1.4.74.94 1.2 2.52 1.2 4.57v17.91c0 .47.38.84.85.84h6.25c.46 0 .84-.37.84-.84V29.24c-.28-7.55-4.2-11.46-11.57-11.46z" id="path15" fill="#df4661"/><path class="st0" d="M135.72 32.98c-1.12-.84-2.89-1.68-5.4-2.61-3.46-1.31-4.86-2.15-5.42-2.52-.65-.47-.93-1.03-.93-1.68 0-.47 0-1.96 4.1-1.96 2.05 0 4.57.65 7.65 1.87.37.18.84 0 1.03-.47l1.95-4.66c.2-.38 0-.84-.37-1.03a24.73 24.73 0 0 0-10.07-2.14c-3.64 0-6.53.74-8.67 2.24a7.38 7.38 0 0 0-3.36 6.43c0 2.24.66 4.2 1.96 5.6 1.3 1.4 3.64 2.8 7.09 4.1 1.68.65 2.98 1.21 3.92 1.77.84.46 1.49.93 1.86 1.3.28.38.47.75.47 1.31 0 .65 0 2.61-4.95 2.61-2.8 0-5.96-.75-9.23-2.33-.28-.1-.56-.1-.74.1-.2.18-.38.37-.38.65v5.31c0 .28.19.56.47.75 2.43 1.21 5.69 1.86 9.7 1.86 4 0 7.18-.84 9.42-2.42a8.55 8.55 0 0 0 3.45-7.18c0-1.5-.28-2.9-.84-4.01a8.73 8.73 0 0 0-2.7-2.9z" id="path17" fill="#df4661"/><path class="st0" d="M165 20.39c-2.05-1.77-5.04-2.61-8.95-2.61a24.85 24.85 0 0 0-10.91 2.61c-.37.18-.56.65-.37 1.02l1.95 4.48c.1.18.28.37.47.46.19.1.47.1.65 0a26.9 26.9 0 0 1 3.83-1.49c1.3-.37 2.6-.65 4-.65 1.59 0 2.8.37 3.46 1.12.74.75 1.12 1.96 1.12 3.64v.65l-4.3.1c-4.66.18-8.3 1.02-10.62 2.6-2.43 1.68-3.73 4.2-3.73 7.46 0 3.08.93 5.41 2.7 7.18 1.77 1.68 4.2 2.52 7.27 2.52 2.33 0 4.3-.37 5.78-1.02 1.22-.56 2.52-1.5 3.73-2.9l.84 2.8c.1.38.38.56.75.56h4.47c.47 0 .84-.37.84-.84V28.6c.19-3.73-.93-6.43-2.98-8.2zm-4.66 14.73v1.68c0 2.05-.56 3.54-1.77 4.66s-2.8 1.68-4.85 1.68c-1.3 0-2.33-.28-2.89-.84-.65-.56-.93-1.4-.93-2.42 0-1.5.56-2.61 1.58-3.36 1.21-.75 3.17-1.21 5.97-1.3l2.89-.1z" id="path19" fill="#df4661"/></g><path class="st0" d="M36.22 6.5H29.8C10.95 10.12 5.17 25.7 2.28 36.8.7 43.05 5.73 48.92 12.63 48.92a.4.4 0 0 0 .37-.37c.19-29.93 11.94-35.9 16.23-37.02v17.62h-1.3c-2.06 0-3.83.19-5.42.47-1.58.28-3.17.84-4.75 1.58-.28.1-.47.38-.47.75v5.03c0 .29.1.57.38.66.18.18.56.18.74.09a21.26 21.26 0 0 1 9.33-2.05c.56 0 1.12 0 1.58.1v12.58c0 .47.38.84.84.84h6.16c.46 0 .84-.37.84-.84V7.33c-.19-.46-.56-.84-.94-.84z" id="path21" fill="#df4661"/></g></g></svg>