<svg width="46" height="47" viewBox="0 0 46 47" xmlns="http://www.w3.org/2000/svg"><path d="M-110.31 0h-37.38A4.33 4.33 0 0 0-152 4.31V41.7a4.33 4.33 0 0 0 4.31 4.31h37.38a4.33 4.33 0 0 0 4.31-4.31V4.3A4.33 4.33 0 0 0-110.31 0zm-24.44 37.38h-5.75V17.25h5.75v20.13zm-2.88-23a2.87 2.87 0 1 1 0-5.75 2.87 2.87 0 0 1 0 5.74zm23 23h-5.75v-11.5a2.87 2.87 0 1 0-5.75 0v11.5h-5.75V17.25h5.75v3.57c1.19-1.63 3-3.57 5.03-3.57 3.58 0 6.47 3.22 6.47 7.19v12.93zM-53 .59a23 23 0 0 0-7.27 44.82c1.15.21 1.57-.5 1.57-1.1l-.03-4.29c-6.4 1.4-7.75-2.71-7.75-2.71-1.04-2.66-2.55-3.37-2.55-3.37-2.09-1.43.16-1.4.16-1.4 2.3.17 3.52 2.38 3.52 2.38 2.06 3.51 5.38 2.5 6.7 1.9.2-1.48.8-2.5 1.46-3.07-5.11-.58-10.48-2.55-10.48-11.36 0-2.52.9-4.57 2.37-6.18-.24-.58-1.03-2.92.22-6.08 0 0 1.93-.62 6.33 2.35a22.1 22.1 0 0 1 11.51 0c4.4-2.97 6.32-2.35 6.32-2.35 1.25 3.16.47 5.5.23 6.08a8.88 8.88 0 0 1 2.36 6.18c0 8.83-5.38 10.77-10.5 11.34.83.72 1.56 2.12 1.56 4.26l-.02 6.31c0 .61.41 1.33 1.58 1.1A23 23 0 0 0-53 .6zM41.69 0H4.3A4.33 4.33 0 0 0 0 4.31V41.7A4.33 4.33 0 0 0 4.31 46H41.7A4.33 4.33 0 0 0 46 41.69V4.3A4.33 4.33 0 0 0 41.69 0zM31.63 7.19c0-.8.64-1.44 1.43-1.44h5.75c.8 0 1.44.65 1.44 1.44v5.75c0 .79-.65 1.44-1.44 1.44h-5.75c-.79 0-1.44-.65-1.44-1.44V7.19zM23 14.37a8.63 8.63 0 1 1 0 17.26 8.63 8.63 0 0 1 0-17.25zm17.25 24.44c0 .8-.65 1.44-1.44 1.44H7.2c-.8 0-1.44-.65-1.44-1.44V20.12h3.16a14.37 14.37 0 1 0 28.17 0h3.17v18.7z" fill="#677077" fill-rule="nonzero"/></svg>
